# xmcd
#
# Track frame offsets:
#	150
#	10550
#	21367
#	29687
#	41689
#	53890
#	63550
#	79629
#	96292
#	110132
#	122990
#	134445
#	146425
#	158445
#	169990
#
# Disc length: 2451 seconds
#
# Revision: 5
# Processed by: cddbd v1.5.2PL0 Copyright (c) Steve Scherf et al.
# Submitted via: audiograbber 1.83.01
#
DISCID=ce09910f
DTITLE=Elvis Presley - The Elvis Presley Collection Rhythm and Blues [CD02)
DYEAR=1998
DGENRE=R&B
TTITLE0=Baby let's play house
TTITLE1=So glad you're mine
TTITLE2=When it rains, it really pours
TTITLE3=I need you so
TTITLE4=A mess of Blues
TTITLE5=Tell me why 
TTITLE6=Fever
TTITLE7=Reconsider baby
TTITLE8=What'd I say
TTITLE9=Down in the Alley 
TTITLE10=Lawdy, Miss Clawdy - baby, what you want me to do
TTITLE11=Tiger Man
TTITLE12=My babe
TTITLE13=Just a little bit
TTITLE14=Wearin' that loved on look
EXTD=
EXTT0=
EXTT1=
EXTT2=
EXTT3=
EXTT4=
EXTT5=
EXTT6=
EXTT7=
EXTT8=
EXTT9=
EXTT10=
EXTT11=
EXTT12=
EXTT13=
EXTT14=
PLAYORDER=
